{"title":"20-20 - 16-9-2016 - In-Laws &amp; Outlaws","uid":15959676,"size":329626724,"categoryP":"video","categoryS":"tv_shows","magnet":"?xt=urn:btih:c17bf1afdc4318c04ef38533d47130441e356f9e&amp;dn=20-20+-+16-9-2016+-+In-Laws+%26amp%3B+Outlaws&amp;tr=udp%3A%2F%2Ftracker.leechers-paradise.org%3A6969&amp;tr=udp%3A%2F%2Fzer0day.ch%3A1337&amp;tr=udp%3A%2F%2Fopen.demonii.com%3A1337&amp;tr=udp%3A%2F%2Ftracker.coppersurfer.tk%3A6969&amp;tr=udp%3A%2F%2Fexodus.desync.com%3A6969","seeders":11,"leechers":4,"uploader":"Bullrout","files":1,"time":1475649628,"description":"20-20 - 16-9-2016 - In-Laws &amp; Outlaws\r\n\r\nPolice Interview Murdered FSU Professor's Ex-Wife; Man Claims Ex Said Her Brother Discussed Killing Her Ex-Husband; Prosecutor Says Not Enough Evidence to Charge Family in Murder.\r\n\r\nComplete name                            : 20-20 - 16-9-2016 - In-Laws &amp; Outlaws.mp4\r\nFormat                                   : MPEG-4\r\nFormat profile                           : Base Media / Version 2\r\nCodec ID                                 : mp42 (mp42/isom/avc1)\r\nFile size                                : 314 MiB\r\nDuration                                 : 39 min 51 s\r\nOverall bit rate mode                    : Variable\r\nOverall bit rate                         : 1 103 kb/s\r\n\r\nVideo\r\nID                                       : 2\r\nFormat                                   : AVC\r\nFormat/Info                              : Advanced Video Codec\r\nFormat profile                           :   \r\nFormat settings, CABAC                   : Yes\r\nFormat settings, ReFrames                : 3 frames\r\nCodec ID                                 : avc1\r\nCodec ID/Info                            : Advanced Video Coding\r\nDuration                                 : 39 min 51 s\r\nBit rate mode                            : Variable\r\nBit rate                                 : 971 kb/s\r\nMaximum bit rate                         : 1 000 kb/s\r\nWidth                                    : 720 pixels\r\nHeight                                   : 404 pixels\r\nDisplay aspect ratio                     : 16:9\r\nOriginal display aspect ratio            : 16:9\r\nFrame rate mode                          : Constant\r\nFrame rate                               : 25.000 FPS\r\nStandard                                 : PAL\r\nColor space                              : YUV\r\nChroma subsampling                       : 4:2:0\r\nBit depth                                : 8 bits\r\nScan type                                : Progressive\r\nBits/(Pixel*Frame)                       : 0.134\r\nStream size                              : 277 MiB (88%)\r\nWriting library                          : x264 core 112\r\nColor range                              : Limited\r\nColor primaries                          : BT.601 PAL\r\nTransfer characteristics                 : BT.470 System B, BT.470 System G\r\nMatrix coefficients                      : BT.601\r\n\r\nAudio\r\nID                                       : 1\r\nFormat                                   : AAC\r\nFormat/Info                              : Advanced Audio Codec\r\nFormat profile                           : LC\r\nCodec ID                                 : 40\r\nDuration                                 : 39 min 51 s\r\nBit rate mode                            : Variable\r\nBit rate                                 : 128 kb/s\r\nMaximum bit rate                         : 576 kb/s\r\nChannel(s)                               : 2 channels\r\nChannel positions                        : Front: L R\r\nSampling rate                            : 48.0 kHz\r\nFrame rate                               : 46.875 FPS (1024 spf)\r\nCompression mode                         : Lossy\r\nStream size                              : 36.5 MiB (12%)","torrent":{"xt":"urn:btih:c17bf1afdc4318c04ef38533d47130441e356f9e","amp;dn":"20-20+-+16-9-2016+-+In-Laws+%26amp%3B+Outlaws","amp;tr":["udp%3A%2F%2Ftracker.leechers-paradise.org%3A6969","udp%3A%2F%2Fzer0day.ch%3A1337","udp%3A%2F%2Fopen.demonii.com%3A1337","udp%3A%2F%2Ftracker.coppersurfer.tk%3A6969","udp%3A%2F%2Fexodus.desync.com%3A6969"],"infoHash":"c17bf1afdc4318c04ef38533d47130441e356f9e","infoHashBuffer":{"type":"Buffer","data":[193,123,241,175,220,67,24,192,78,243,133,51,212,113,48,68,30,53,111,158]},"announce":[],"urlList":[]}}